<svg xmlns="http://www.w3.org/2000/svg" width="24" height="24" viewBox="0 0 24 24">
  <title>building-3</title>
  <g id="Duotone">
    <polygon points="23.5 23.499 23.5 15.999 18.5 14.999 18.5 0.499 8.5 1.499 8.5 8.699 0.5 9.499 0.5 23.499 23.5 23.499" fill="#fff"/>
    <rect x="13.5" y="20.499" width="3" height="3" fill="#cce7ff"/>
    <rect x="3.5" y="20.499" width="3" height="3" fill="#cce7ff"/>
    <rect x="10.5" y="8.499" width="3" height="15" fill="#cce7ff"/>
    <polygon points="21 23.499 18.5 23.499 18.5 14.999 21 15.499 21 23.499" fill="#cce7ff"/>
    <polyline points="0.5 23.499 0.5 9.499 10.5 8.499 10.5 23.499" fill="none" stroke="#1078ff" stroke-linecap="round" stroke-linejoin="round"/>
    <polyline points="23.5 23.499 23.5 15.999 18.5 14.999 18.5 23.499" fill="none" stroke="#1078ff" stroke-linecap="round" stroke-linejoin="round"/>
    <polyline points="8.5 8.699 8.5 1.499 18.5 0.499 18.5 23.499" fill="none" stroke="#1078ff" stroke-linecap="round" stroke-linejoin="round"/>
    <line x1="8.5" y1="3.999" x2="18.5" y2="2.999" fill="none" stroke="#1078ff" stroke-linecap="round" stroke-linejoin="round"/>
    <rect x="13.5" y="20.499" width="3" height="3" fill="none" stroke="#1078ff" stroke-linecap="round" stroke-linejoin="round"/>
    <rect x="3.5" y="20.499" width="3" height="3" fill="none" stroke="#1078ff" stroke-linecap="round" stroke-linejoin="round"/>
    <line x1="3.5" y1="11.499" x2="4.5" y2="11.499" fill="none" stroke="#1078ff" stroke-linecap="round" stroke-linejoin="round"/>
    <line x1="6.5" y1="11.499" x2="7.5" y2="11.499" fill="none" stroke="#1078ff" stroke-linecap="round" stroke-linejoin="round"/>
    <line x1="3.5" y1="13.499" x2="4.5" y2="13.499" fill="none" stroke="#1078ff" stroke-linecap="round" stroke-linejoin="round"/>
    <line x1="6.5" y1="13.499" x2="7.5" y2="13.499" fill="none" stroke="#1078ff" stroke-linecap="round" stroke-linejoin="round"/>
    <line x1="3.5" y1="15.499" x2="4.5" y2="15.499" fill="none" stroke="#1078ff" stroke-linecap="round" stroke-linejoin="round"/>
    <line x1="6.5" y1="15.499" x2="7.5" y2="15.499" fill="none" stroke="#1078ff" stroke-linecap="round" stroke-linejoin="round"/>
    <line x1="3.5" y1="17.499" x2="4.5" y2="17.499" fill="none" stroke="#1078ff" stroke-linecap="round" stroke-linejoin="round"/>
    <line x1="6.5" y1="17.499" x2="7.5" y2="17.499" fill="none" stroke="#1078ff" stroke-linecap="round" stroke-linejoin="round"/>
    <line x1="15.5" y1="5.499" x2="16.5" y2="5.499" fill="none" stroke="#1078ff" stroke-linecap="round" stroke-linejoin="round"/>
    <line x1="15.5" y1="7.499" x2="16.5" y2="7.499" fill="none" stroke="#1078ff" stroke-linecap="round" stroke-linejoin="round"/>
    <line x1="15.5" y1="9.499" x2="16.5" y2="9.499" fill="none" stroke="#1078ff" stroke-linecap="round" stroke-linejoin="round"/>
    <line x1="15.5" y1="11.499" x2="16.5" y2="11.499" fill="none" stroke="#1078ff" stroke-linecap="round" stroke-linejoin="round"/>
    <line x1="15.5" y1="13.499" x2="16.5" y2="13.499" fill="none" stroke="#1078ff" stroke-linecap="round" stroke-linejoin="round"/>
    <line x1="15.5" y1="15.499" x2="16.5" y2="15.499" fill="none" stroke="#1078ff" stroke-linecap="round" stroke-linejoin="round"/>
    <line x1="15.5" y1="17.499" x2="16.5" y2="17.499" fill="none" stroke="#1078ff" stroke-linecap="round" stroke-linejoin="round"/>
    <line x1="12.5" y1="5.499" x2="13.5" y2="5.499" fill="none" stroke="#1078ff" stroke-linecap="round" stroke-linejoin="round"/>
    <line x1="12.5" y1="7.499" x2="13.5" y2="7.499" fill="none" stroke="#1078ff" stroke-linecap="round" stroke-linejoin="round"/>
    <line x1="12.5" y1="9.499" x2="13.5" y2="9.499" fill="none" stroke="#1078ff" stroke-linecap="round" stroke-linejoin="round"/>
    <line x1="12.5" y1="11.499" x2="13.5" y2="11.499" fill="none" stroke="#1078ff" stroke-linecap="round" stroke-linejoin="round"/>
    <line x1="12.5" y1="13.499" x2="13.5" y2="13.499" fill="none" stroke="#1078ff" stroke-linecap="round" stroke-linejoin="round"/>
    <line x1="12.5" y1="15.499" x2="13.5" y2="15.499" fill="none" stroke="#1078ff" stroke-linecap="round" stroke-linejoin="round"/>
    <line x1="12.5" y1="17.499" x2="13.5" y2="17.499" fill="none" stroke="#1078ff" stroke-linecap="round" stroke-linejoin="round"/>
    <line x1="20.5" y1="18.499" x2="21.5" y2="18.499" fill="none" stroke="#1078ff" stroke-linecap="round" stroke-linejoin="round"/>
    <line x1="20.5" y1="20.499" x2="21.5" y2="20.499" fill="none" stroke="#1078ff" stroke-linecap="round" stroke-linejoin="round"/>
    <line x1="0.5" y1="23.499" x2="23.5" y2="23.499" fill="none" stroke="#1078ff" stroke-linecap="round" stroke-linejoin="round"/>
  </g>
  <g id="Frames-24px">
    <rect width="24" height="24" fill="none"/>
  </g>
</svg>
