<svg xmlns="http://www.w3.org/2000/svg" width="24" height="24" viewBox="0 0 24 24">
  <title>building-10</title>
  <g id="Duotone">
    <polygon points="2.5 6.501 1 4.499 2.5 2.999 3.5 1.499 5 1.499 6.5 2.999 8.5 2.999 10 4.499 8.5 6.501 2.5 6.501" fill="#fff"/>
    <polygon points="15.5 1.499 15.5 11.501 11.5 7.499 7.5 11.499 7.5 15.501 2.5 15.501 0.5 18.499 1.5 18.499 1.5 23.499 7.5 23.499 15.5 23.499 23.5 23.499 23.5 1.499 15.5 1.499" fill="#fff"/>
    <polyline points="3.5 23.499 3.5 20.501 5.5 20.501 5.5 23.499" fill="#cce7ff"/>
    <polygon points="13.5 13.499 9.5 16.501 13.5 16.501 13.5 13.499" fill="#cce7ff"/>
    <polygon points="13.5 18.499 9.5 21.501 13.5 21.501 13.5 18.499" fill="#cce7ff"/>
    <polygon points="23.5 1.499 15.5 23.499 23.5 23.499 23.5 1.499" fill="#cce7ff"/>
    <polygon points="2.5 15.501 0.5 18.499 7.5 18.499 7.5 15.501 2.5 15.501" fill="none" stroke="#1078ff" stroke-linecap="round" stroke-linejoin="round"/>
    <polyline points="7.5 23.499 7.5 11.499 11.5 7.499 15.5 11.501 15.5 23.499" fill="none" stroke="#1078ff" stroke-linecap="round" stroke-linejoin="round"/>
    <polyline points="15.5 11.499 15.5 1.499 23.5 1.499 23.5 23.499" fill="none" stroke="#1078ff" stroke-linecap="round" stroke-linejoin="round"/>
    <line x1="1.5" y1="18.499" x2="1.5" y2="23.499" fill="none" stroke="#1078ff" stroke-linecap="round" stroke-linejoin="round"/>
    <line x1="7.5" y1="11.499" x2="15.499" y2="11.499" fill="none" stroke="#1078ff" stroke-linecap="round" stroke-linejoin="round"/>
    <line x1="18.5" y1="3.499" x2="18.5" y2="5.499" fill="none" stroke="#1078ff" stroke-linecap="round" stroke-linejoin="round"/>
    <line x1="20.5" y1="3.499" x2="20.5" y2="5.499" fill="none" stroke="#1078ff" stroke-linecap="round" stroke-linejoin="round"/>
    <line x1="18.5" y1="7.499" x2="18.5" y2="9.499" fill="none" stroke="#1078ff" stroke-linecap="round" stroke-linejoin="round"/>
    <line x1="20.5" y1="7.499" x2="20.5" y2="9.499" fill="none" stroke="#1078ff" stroke-linecap="round" stroke-linejoin="round"/>
    <line x1="18.5" y1="11.499" x2="18.5" y2="13.499" fill="none" stroke="#1078ff" stroke-linecap="round" stroke-linejoin="round"/>
    <line x1="20.5" y1="11.499" x2="20.5" y2="13.499" fill="none" stroke="#1078ff" stroke-linecap="round" stroke-linejoin="round"/>
    <line x1="18.5" y1="15.499" x2="18.5" y2="17.499" fill="none" stroke="#1078ff" stroke-linecap="round" stroke-linejoin="round"/>
    <line x1="20.5" y1="15.499" x2="20.5" y2="17.499" fill="none" stroke="#1078ff" stroke-linecap="round" stroke-linejoin="round"/>
    <rect x="9.5" y="13.499" width="4" height="3.002" fill="none" stroke="#1078ff" stroke-linecap="round" stroke-linejoin="round"/>
    <rect x="9.5" y="18.499" width="4" height="3.002" fill="none" stroke="#1078ff" stroke-linecap="round" stroke-linejoin="round"/>
    <line x1="18.5" y1="19.499" x2="18.5" y2="21.499" fill="none" stroke="#1078ff" stroke-linecap="round" stroke-linejoin="round"/>
    <line x1="20.5" y1="19.499" x2="20.5" y2="21.499" fill="none" stroke="#1078ff" stroke-linecap="round" stroke-linejoin="round"/>
    <polyline points="3.5 23.499 3.5 20.501 5.5 20.501 5.5 23.499" fill="none" stroke="#1078ff" stroke-linecap="round" stroke-linejoin="round"/>
    <line x1="23.5" y1="23.499" x2="1.5" y2="23.499" fill="none" stroke="#1078ff" stroke-linecap="round" stroke-linejoin="round"/>
    <polygon points="2.5 6.501 1 4.499 2.5 2.999 3.5 1.499 5 1.499 6.5 2.999 8.5 2.999 10 4.499 8.5 6.501 2.5 6.501" fill="none" stroke="#1078ff" stroke-linecap="round" stroke-linejoin="round"/>
  </g>
  <g id="Frames-24px">
    <rect width="24" height="24" fill="none"/>
  </g>
</svg>
