<?xml version="1.0" encoding="utf-8"?>
<!-- Generator: Adobe Illustrator 21.0.2, SVG Export Plug-In . SVG Version: 6.00 Build 0)  -->
<svg version="1.1" xmlns="http://www.w3.org/2000/svg" xmlns:xlink="http://www.w3.org/1999/xlink" x="0px" y="0px"
	 viewBox="0 0 24 24" style="enable-background:new 0 0 24 24;" xml:space="preserve">
<style type="text/css">
	.st0{fill:#FFFFFF;}
	.st1{fill:#CCE7FF;}
	.st2{fill:none;stroke:#1078FF;stroke-linecap:round;stroke-linejoin:round;stroke-miterlimit:10;}
	.st3{fill:none;}
</style>
<g id="Duotone">
	<rect x="0.5" y="3.5" class="st0" width="22" height="20"/>
	<rect x="0.5" y="21.5" class="st1" width="22" height="2"/>
	<rect x="3.5" y="12.5" class="st1" width="4" height="4"/>
	<rect x="15.5" y="16.5" class="st1" width="4" height="4"/>
	<g>
		<line class="st2" x1="5.5" y1="1.5" x2="5.5" y2="5.5"/>
		<line class="st2" x1="9.5" y1="1.5" x2="9.5" y2="5.5"/>
		<line class="st2" x1="13.5" y1="1.5" x2="13.5" y2="5.5"/>
		<line class="st2" x1="17.5" y1="1.5" x2="17.5" y2="5.5"/>
		<rect x="0.5" y="3.5" class="st2" width="22" height="20"/>
		<g>
			<polygon class="st2" points="7.5,12.5 7.5,8.5 19.5,8.5 19.5,20.5 3.5,20.5 3.5,12.5 			"/>
			<line class="st2" x1="7.5" y1="12.5" x2="7.5" y2="20.5"/>
			<line class="st2" x1="11.5" y1="8.5" x2="11.5" y2="20.5"/>
			<line class="st2" x1="15.5" y1="8.5" x2="15.5" y2="20.5"/>
			<line class="st2" x1="7.5" y1="12.5" x2="19.5" y2="12.5"/>
			<line class="st2" x1="3.5" y1="16.5" x2="19.5" y2="16.5"/>
		</g>
	</g>
</g>
<g id="Frames-24px">
	<rect class="st3" width="24" height="24"/>
</g>
</svg>
