<svg xmlns="http://www.w3.org/2000/svg" width="24" height="24" viewBox="0 0 24 24">
  <title>cog-double-2</title>
  <g id="Duotone">
    <polygon points="12.5 15.662 14.5 13.666 13.509 11.928 10.754 12.637 9.093 11.674 8.5 9.5 6.5 9.5 5.907 11.674 4.246 12.637 1.49 11.928 0.5 13.666 2.5 15.662 2.5 17.338 0.5 19.334 1.49 21.072 4.246 20.363 5.907 21.326 6.5 23.5 8.5 23.5 9.093 21.326 10.754 20.363 13.509 21.072 14.5 19.334 12.5 17.338 12.5 15.662" fill="#fff"/>
    <polygon points="21.5 5.513 22.5 4.417 21.738 3.125 20.26 3.478 18.582 2.579 18.25 1.5 16.75 1.5 16.418 2.579 14.74 3.478 13.262 3.125 12.5 4.417 13.5 5.513 13.5 7.487 12.5 8.583 13.262 9.875 14.74 9.522 16.418 10.421 16.75 11.5 18.25 11.5 18.582 10.421 20.26 9.522 21.738 9.875 22.5 8.583 21.5 7.487 21.5 5.513" fill="#fff"/>
    <polygon points="12.5 15.662 14.5 13.666 13.51 11.928 11.887 12.346 9.704 14.529 10.5 15 10.5 18 7.5 19.775 5.588 18.644 3.739 20.493 4.246 20.363 5.907 21.326 6.5 23.5 8.5 23.5 9.093 21.326 10.754 20.363 13.51 21.072 14.5 19.334 12.5 17.338 12.5 15.662" fill="#cce7ff"/>
    <polygon points="22.5 4.417 21.738 3.125 20.36 3.454 18.818 4.996 19.5 5.382 19.5 7.618 17.5 8.75 15.944 7.87 14.151 9.663 14.74 9.522 16.418 10.421 16.75 11.5 18.25 11.5 18.582 10.421 20.26 9.522 21.738 9.875 22.5 8.583 21.5 7.487 21.5 5.513 22.5 4.417" fill="#cce7ff"/>
    <polygon points="12.5 15.662 14.5 13.666 13.509 11.928 10.754 12.637 9.093 11.674 8.5 9.5 6.5 9.5 5.907 11.674 4.246 12.637 1.49 11.928 0.5 13.666 2.5 15.662 2.5 17.338 0.5 19.334 1.49 21.072 4.246 20.363 5.907 21.326 6.5 23.5 8.5 23.5 9.093 21.326 10.754 20.363 13.509 21.072 14.5 19.334 12.5 17.338 12.5 15.662" fill="none" stroke="#1078ff" stroke-linecap="round" stroke-linejoin="round"/>
    <polygon points="4.5 15 7.5 13.225 10.5 15 10.5 18 7.5 19.775 4.5 18 4.5 15" fill="none" stroke="#1078ff" stroke-linecap="round" stroke-linejoin="round"/>
    <polygon points="21.5 5.513 22.5 4.417 21.738 3.125 20.26 3.478 18.582 2.579 18.25 1.5 16.75 1.5 16.418 2.579 14.74 3.478 13.262 3.125 12.5 4.417 13.5 5.513 13.5 7.487 12.5 8.583 13.262 9.875 14.74 9.522 16.418 10.421 16.75 11.5 18.25 11.5 18.582 10.421 20.26 9.522 21.738 9.875 22.5 8.583 21.5 7.487 21.5 5.513" fill="none" stroke="#1078ff" stroke-linecap="round" stroke-linejoin="round"/>
    <polygon points="15.5 5.382 17.5 4.25 19.5 5.382 19.5 7.618 17.5 8.75 15.5 7.618 15.5 5.382" fill="none" stroke="#1078ff" stroke-linecap="round" stroke-linejoin="round"/>
    <path d="M8.065,16.266h0M7.5,15.5a.2.2,0,0,0-.141.059l-.8.8a.2.2,0,0,0,0,.283l.8.8a.2.2,0,0,0,.283,0l.8-.8a.2.2,0,0,0,0-.283l-.8-.8A.2.2,0,0,0,7.5,15.5Z" fill="#1078ff"/>
  </g>
  <g id="Frames-24px">
    <rect width="24" height="24" fill="none"/>
  </g>
</svg>
