<?xml version="1.0" encoding="utf-8"?>
<!-- Generator: Adobe Illustrator 21.0.2, SVG Export Plug-In . SVG Version: 6.00 Build 0)  -->
<svg version="1.1" xmlns="http://www.w3.org/2000/svg" xmlns:xlink="http://www.w3.org/1999/xlink" x="0px" y="0px"
	 viewBox="0 0 24 24" style="enable-background:new 0 0 24 24;" xml:space="preserve">
<style type="text/css">
	.st0{fill:#FFFFFF;}
	.st1{fill:#CCE7FF;}
	.st2{fill:none;stroke:#1078FF;stroke-linecap:round;stroke-linejoin:round;stroke-miterlimit:10;}
	.st3{fill:#1078FF;}
	.st4{fill:none;}
</style>
<g id="Duotone">
	<polygon class="st0" points="21.5,18 11.5,23.5 1.5,18 1.5,7 11.5,1.5 21.5,7 	"/>
	<polygon class="st1" points="19.5,16.5 11.5,21 3.5,16.5 1.5,18 11.5,23.5 21.5,18 	"/>
	<g>
		<line class="st2" x1="5.5" y1="9.5" x2="12.5" y2="9.5"/>
		<polyline class="st2" points="8.5,12.5 5.5,9.5 8.5,6.5 		"/>
	</g>
	<g>
		<line class="st2" x1="17.5" y1="15.5" x2="10.5" y2="15.5"/>
		<polyline class="st2" points="14.5,12.5 17.5,15.5 14.5,18.5 		"/>
	</g>
	<polygon class="st2" points="21.5,18 11.5,23.5 1.5,18 1.5,7 11.5,1.5 21.5,7 	"/>
</g>
<g id="Frames-24px">
	<rect class="st4" width="24" height="24"/>
</g>
</svg>
