<?xml version="1.0" encoding="utf-8"?>
<!-- Generator: Adobe Illustrator 21.0.2, SVG Export Plug-In . SVG Version: 6.00 Build 0)  -->
<svg version="1.1" xmlns="http://www.w3.org/2000/svg" xmlns:xlink="http://www.w3.org/1999/xlink" x="0px" y="0px"
	 viewBox="0 0 24 24" style="enable-background:new 0 0 24 24;" xml:space="preserve">
<style type="text/css">
	.st0{fill:#FFFFFF;}
	.st1{fill:#CCE7FF;}
	.st2{fill:none;stroke:#1078FF;stroke-linecap:round;stroke-linejoin:round;stroke-miterlimit:10;}
	.st3{fill:none;stroke:#1078FF;stroke-linejoin:round;stroke-miterlimit:10;}
	.st4{fill:none;stroke:#1078FF;stroke-linecap:round;stroke-miterlimit:10;}
	.st5{fill:none;}
</style>
<g id="Duotone">
	<polygon class="st0" points="12,23.5 6.5,14.5 6.5,9.5 12,6.5 17.5,9.5 17.5,14.5 	"/>
	<polygon class="st1" points="12,6.5 12,9.5 14.5,11 14.5,13.8 12,15.3 12,23.5 17.5,14.5 17.5,9.5 	"/>
	<polygon class="st1" points="6.5,14.5 6.5,9.5 10.5,7.3 10.5,3.7 5.5,0.5 0.5,3.7 0.5,8 5.5,16.3 6.6,14.6 	"/>
	<polygon class="st1" points="18.5,0.5 13.5,3.7 13.5,7.3 17.5,9.5 17.5,14.5 17.4,14.6 18.5,16.3 23.5,8 23.5,3.7 	"/>
	<polygon class="st2" points="12,23.5 6.5,14.5 6.5,9.5 12,6.5 17.5,9.5 17.5,14.5 	"/>
	<polygon class="st2" points="14.5,13.8 12,15.3 9.5,13.8 9.5,11 12,9.5 14.5,11 	"/>
	<g>
		<polyline class="st2" points="19,15.5 23.5,8 23.5,3.7 18.5,0.5 13.5,3.7 		"/>
	</g>
	<polyline class="st2" points="19,8.2 20.5,7.3 20.5,5.3 18.5,4 16.5,5.3 16.5,6.5 	"/>
	<g>
		<polyline class="st2" points="5,15.5 0.5,8 0.5,3.7 5.5,0.5 10.5,3.7 		"/>
	</g>
	<polyline class="st2" points="5,8.2 3.5,7.3 3.5,5.3 5.5,4 7.5,5.3 7.5,6.5 	"/>
</g>
<g id="Frames-24px">
	<rect class="st5" width="24" height="24"/>
</g>
</svg>
