<?xml version="1.0" encoding="utf-8"?>
<!-- Generator: Adobe Illustrator 21.0.2, SVG Export Plug-In . SVG Version: 6.00 Build 0)  -->
<svg version="1.1" xmlns="http://www.w3.org/2000/svg" xmlns:xlink="http://www.w3.org/1999/xlink" x="0px" y="0px"
	 viewBox="0 0 24 24" style="enable-background:new 0 0 24 24;" xml:space="preserve">
<style type="text/css">
	.st0{fill:#FFFFFF;}
	.st1{fill:#CCE7FF;}
	.st2{fill:none;stroke:#1078FF;stroke-linecap:round;stroke-linejoin:round;stroke-miterlimit:10;}
	.st3{fill:none;}
</style>
<g id="Duotone">
	<polygon class="st0" points="4.5,6.8 2.5,8 0.5,6.8 0.5,4.8 2.5,3.5 4.5,4.8 	"/>
	<polygon class="st0" points="19.5,4.8 17.5,6 15.5,4.8 15.5,2.8 17.5,1.5 19.5,2.8 	"/>
	<polygon class="st0" points="4.5,21.3 2.5,22.5 0.5,21.3 0.5,19.3 2.5,18 4.5,19.3 	"/>
	<polygon class="st0" points="21,22.3 19,23.5 17,22.3 17,20.3 19,19 21,20.3 	"/>
	<polygon class="st0" points="22.5,12.5 20.5,13.8 18.5,12.5 18.5,10.5 20.5,9.3 22.5,10.5 	"/>
	<polygon class="st0" points="13.5,13.3 10,15.5 6.5,13.3 6.5,9.8 10,7.5 13.5,9.8 	"/>
	<polygon class="st1" points="6.5,13.2 7.5,12.5 10,14 12.5,12.5 13.5,13.3 10,15.5 	"/>
	<polygon class="st2" points="13.5,13.3 10,15.5 6.5,13.3 6.5,9.8 10,7.5 13.5,9.8 	"/>
	<polygon class="st2" points="4.5,6.8 2.5,8 0.5,6.8 0.5,4.8 2.5,3.5 4.5,4.8 	"/>
	<polygon class="st2" points="19.5,4.8 17.5,6 15.5,4.8 15.5,2.8 17.5,1.5 19.5,2.8 	"/>
	<polygon class="st2" points="4.5,21.3 2.5,22.5 0.5,21.3 0.5,19.3 2.5,18 4.5,19.3 	"/>
	<polygon class="st2" points="21,22.3 19,23.5 17,22.3 17,20.3 19,19 21,20.3 	"/>
	<polygon class="st2" points="22.5,12.5 20.5,13.8 18.5,12.5 18.5,10.5 20.5,9.3 22.5,10.5 	"/>
	<line class="st2" x1="6.5" y1="9.8" x2="3.8" y2="7.2"/>
	<line class="st2" x1="17.7" y1="19.8" x2="11.7" y2="14.4"/>
	<line class="st2" x1="18.5" y1="11.5" x2="13.5" y2="11.5"/>
	<line class="st2" x1="8" y1="14.2" x2="3.7" y2="18.7"/>
	<line class="st2" x1="16.3" y1="5.3" x2="12.6" y2="9.2"/>
</g>
<g id="Frames-24px">
	<rect class="st3" width="24" height="24"/>
</g>
</svg>
