<?xml version="1.0" encoding="utf-8"?>
<!-- Generator: Adobe Illustrator 21.0.2, SVG Export Plug-In . SVG Version: 6.00 Build 0)  -->
<svg version="1.1" xmlns="http://www.w3.org/2000/svg" xmlns:xlink="http://www.w3.org/1999/xlink" x="0px" y="0px"
	 viewBox="0 0 24 24" style="enable-background:new 0 0 24 24;" xml:space="preserve">
<style type="text/css">
	.st0{fill:#FFFFFF;}
	.st1{fill:#CCE7FF;}
	.st2{fill:none;stroke:#1078FF;stroke-linecap:round;stroke-linejoin:round;stroke-miterlimit:10;}
	.st3{fill:none;}
</style>
<g id="Duotone">
	<polygon class="st0" points="21.5,18 11.5,23.5 1.5,18 1.5,7 11.5,1.5 21.5,7 	"/>
	<polygon class="st1" points="19.5,16.5 11.5,21 3.5,16.5 1.5,18 11.5,23.5 21.5,18 	"/>
	<rect x="10.4" y="16.9" transform="matrix(0.7071 -0.7071 0.7071 0.7071 -9.3596 13.4038)" class="st1" width="2.1" height="2.1"/>
	<polygon class="st1" points="12,14.5 11,14.5 10,6.5 13,6.5 	"/>
	<polygon class="st2" points="21.5,18 11.5,23.5 1.5,18 1.5,7 11.5,1.5 21.5,7 	"/>
	<rect x="10.4" y="16.9" transform="matrix(0.7071 -0.7071 0.7071 0.7071 -9.3596 13.4038)" class="st2" width="2.1" height="2.1"/>
	<polygon class="st2" points="12,14.5 11,14.5 10,6.5 13,6.5 	"/>
</g>
<g id="Frames-24px">
	<rect class="st3" width="24" height="24"/>
</g>
</svg>
