<?xml version="1.0" encoding="utf-8"?>
<!-- Generator: Adobe Illustrator 21.0.2, SVG Export Plug-In . SVG Version: 6.00 Build 0)  -->
<svg version="1.1" xmlns="http://www.w3.org/2000/svg" xmlns:xlink="http://www.w3.org/1999/xlink" x="0px" y="0px"
	 viewBox="0 0 24 24" style="enable-background:new 0 0 24 24;" xml:space="preserve">
<style type="text/css">
	.st0{fill:#FFFFFF;}
	.st1{fill:#CCE7FF;}
	.st2{fill:none;stroke:#1078FF;stroke-linecap:round;stroke-linejoin:round;stroke-miterlimit:10;}
	.st3{fill:none;}
</style>
<g id="Duotone">
	<polygon class="st0" points="0.5,23.5 22.5,23.5 11.5,1.5 	"/>
	<g>
		
			<rect x="10.4" y="17.9" transform="matrix(0.7071 -0.7071 0.7071 0.7071 -10.0668 13.6967)" class="st1" width="2.1" height="2.1"/>
		<polygon class="st1" points="12,15.5 11,15.5 10,9.5 13,9.5 		"/>
	</g>
	<polygon class="st1" points="4,21 0.5,23.5 22.5,23.5 19,21 	"/>
	<g>
		
			<rect x="10.4" y="17.9" transform="matrix(0.7071 -0.7071 0.7071 0.7071 -10.0668 13.6967)" class="st2" width="2.1" height="2.1"/>
		<polygon class="st2" points="12,15.5 11,15.5 10,9.5 13,9.5 		"/>
	</g>
	<polygon class="st2" points="0.5,23.5 22.5,23.5 11.5,1.5 	"/>
</g>
<g id="Frames-24px">
	<rect class="st3" width="24" height="24"/>
</g>
</svg>
